<svg xmlns="http://www.w3.org/2000/svg" width="110.635" height="23" viewBox="0 0 110.635 23">
  <g id="Baikal_Logo" data-name="Baikal Logo" transform="translate(0.217 0.055)">
    <path id="Baikal_Logotype" data-name="Baikal Logotype" d="M59.348,21.482a6.025,6.025,0,0,1-4.03-1.39,4.649,4.649,0,0,1-1.628-3.707,3.936,3.936,0,0,1,1.684-3.468,8.1,8.1,0,0,1,4.605-1.152h3.145v-.084c0-1.6-.86-2.415-2.555-2.415a6.935,6.935,0,0,0-2.316.435,7.571,7.571,0,0,0-2.064,1.081L54.308,8.059A11.31,11.31,0,0,1,61.1,5.9,7.061,7.061,0,0,1,65.6,7.273a5.233,5.233,0,0,1,1.741,4.352v9.631H63.378V19.432A4.984,4.984,0,0,1,59.348,21.482Zm1.109-6.712c-1.677,0-2.527.529-2.527,1.573a1.454,1.454,0,0,0,.6,1.25,2.941,2.941,0,0,0,1.726.434,3.089,3.089,0,0,0,1.98-.687A2.248,2.248,0,0,0,63.1,15.5v-.73ZM22.366,21.482a6.042,6.042,0,0,1-4.029-1.39,4.647,4.647,0,0,1-1.629-3.707,3.932,3.932,0,0,1,1.685-3.468A8.092,8.092,0,0,1,23,11.765h3.145v-.084c0-1.6-.86-2.415-2.556-2.415a6.944,6.944,0,0,0-2.316.435,7.724,7.724,0,0,0-2.063,1.081L17.325,8.059a11.288,11.288,0,0,1,6.8-2.162,7.063,7.063,0,0,1,4.493,1.376,5.233,5.233,0,0,1,1.741,4.352v9.631H26.4V19.432A4.984,4.984,0,0,1,22.366,21.482Zm1.11-6.712c-1.677,0-2.527.529-2.527,1.573a1.453,1.453,0,0,0,.6,1.25,2.944,2.944,0,0,0,1.727.434,3.083,3.083,0,0,0,1.979-.687,2.245,2.245,0,0,0,.856-1.839v-.73Zm20.33,6.487H39.593V.421h4.213v10.7l4.689-5H53.8l-5.757,6.121,5.981,9.012-5,0-3.847-5.784L43.806,16.9v4.352Zm-6.8,0H32.8V6.15H37.01V21.255Zm36.981,0H69.78V.421h4.212V21.255Zm-65.4,0H0V1.629H7.638a11.145,11.145,0,0,1,3.44.477A4.953,4.953,0,0,1,13.254,3.4a5.1,5.1,0,0,1,1.32,3.426,4.036,4.036,0,0,1-1.488,3.426,4.908,4.908,0,0,1-.7.492c-.136.068-.378.179-.7.323a5.177,5.177,0,0,1,2.907,1.642,4.6,4.6,0,0,1,1.081,3.1,5.3,5.3,0,0,1-1.4,3.623C13.186,20.642,11.277,21.256,8.592,21.256ZM4.381,13.03v4.521h3a6.607,6.607,0,0,0,2.821-.464,1.841,1.841,0,0,0,.94-1.825,1.762,1.762,0,0,0-1-1.8,8.561,8.561,0,0,0-3.187-.435Zm0-7.694V9.575H6.458a7.1,7.1,0,0,0,2.71-.392,1.666,1.666,0,0,0,.884-1.7,1.763,1.763,0,0,0-.814-1.726,6.431,6.431,0,0,0-2.752-.421ZM34.9,4.942a2.4,2.4,0,0,1-1.755-.716,2.4,2.4,0,0,1-.716-1.755A2.4,2.4,0,0,1,33.149.716a2.508,2.508,0,0,1,3.51,0,2.4,2.4,0,0,1,.716,1.755,2.4,2.4,0,0,1-.716,1.755A2.4,2.4,0,0,1,34.9,4.942Z" transform="translate(36.427 1.138)" fill="#fff"/>
    <path id="Baikal_Logo-2" data-name="Baikal Logo" d="M11.5,23h0c-.18,0-.362,0-.54-.012A11.5,11.5,0,0,1,6.9.958,11.4,11.4,0,0,1,11.5,0c.18,0,.361,0,.539.012A11.5,11.5,0,0,1,16.1,22.042,11.4,11.4,0,0,1,11.5,23ZM9.553,12.183a1.815,1.815,0,0,0-.831.2c-.01.006-1,.615-1.98,1.355s-1.8,1.515-1.234,2.265a7.5,7.5,0,0,0,5.471,2.981c.175.012.353.018.529.019a7.523,7.523,0,0,0,7.051-4.952.46.46,0,0,0-.179-.534l-.712-.506a1.806,1.806,0,0,0-1.877-.131l-1.727.894a1.815,1.815,0,0,1-.831.2,1.8,1.8,0,0,1-1.046-.334L10.6,12.517A1.8,1.8,0,0,0,9.553,12.183Zm.215-3.16a1.8,1.8,0,0,1,1.046.333L12.4,10.483a1.808,1.808,0,0,0,1.877.132l.01-.006c.244-.152,1.107-.7,1.97-1.35.974-.733,1.8-1.514,1.234-2.265a7.5,7.5,0,0,0-5.471-2.98C11.845,4,11.668,4,11.492,4A7.52,7.52,0,0,0,4.442,8.949a.463.463,0,0,0,.178.534l.713.506a1.811,1.811,0,0,0,1.877.131l1.726-.9A1.814,1.814,0,0,1,9.768,9.023Z" transform="translate(-0.217 -0.055)" fill="#fff"/>
  </g>
</svg>
