<svg xmlns="http://www.w3.org/2000/svg" width="162.575" height="39.771" viewBox="0 0 162.575 39.771">
  <path id="Dribbble_Logo" data-name="Dribbble Logo" d="M113,39.771h-.127a6.878,6.878,0,0,1-4.582-1.808,11.866,11.866,0,0,1-2.756-3.882,22.44,22.44,0,0,1-1.7-5.613l0,.005a8.62,8.62,0,0,1-3.588,2.066l0-.043a13.29,13.29,0,0,1-1.783,5.051A8.192,8.192,0,0,1,91.279,39.6h-.12A6.336,6.336,0,0,1,86.8,37.832a12.479,12.479,0,0,1-2.737-3.887,24.288,24.288,0,0,1-1.828-5.653,7.249,7.249,0,0,1-3.628,1.728l0-.031,0-.036v-.02a15.3,15.3,0,0,1-1.446,4.734,9.522,9.522,0,0,1-2.744,3.389A7.951,7.951,0,0,1,69.551,39.6H69.51a7.228,7.228,0,0,1-5.673-2.759,9.6,9.6,0,0,1-2.331-5.26.285.285,0,0,0,.01-.112,1.658,1.658,0,0,0-.128.31l0,.008a20.464,20.464,0,0,1-1.784,3.76c-1.682,2.708-3.676,4.082-5.928,4.082l-.111,0c-2.22-.065-4.146-1.556-5.424-4.2l0,.007C46.764,37,44.47,39.625,41.9,39.625a4.843,4.843,0,0,1-3.677-1.4C36.356,36.291,35.585,32.153,35.8,25.2c.03-1.3-.071-1.767-1.321-1.956-.323-.053-.642-.127-.942-.2l-.008,0-.029-.006-.066-.015-.031-.007-.007,0-.01,0c-.358-.085-.8-.19-1.254-.259-.024.081-.066.289-.134.643L32,23.419a46.475,46.475,0,0,1-2.645,9.2c-1.957,4.546-4.43,6.908-7.351,7.022-.056,0-.112,0-.167,0-2.334,0-3.688-1.955-4.776-3.525l-.008-.011-.032-.045-.036-.052-.033-.047,0-.005-.015-.023-.015-.022-.02-.029-.015-.023A8.847,8.847,0,0,1,9.46,39.713a9.079,9.079,0,0,1-6.841-2.98A10.666,10.666,0,0,1,0,29.538a10.664,10.664,0,0,1,2.62-7.193,9.079,9.079,0,0,1,6.841-2.98,4.935,4.935,0,0,1,1.78.287l.01,0c.119.037.248.076.392.118a49.15,49.15,0,0,1-.126-12.082A11.194,11.194,0,0,1,13.8,1.841,5.373,5.373,0,0,1,18.049.069a4.662,4.662,0,0,1,3.515,2.38C22.623,4.03,23.854,7,23.7,12.174c-.156,5.214-1.678,11.393-4.523,18.365.8,2.62,1.959,4.123,3.194,4.123.973,0,1.935-.927,2.783-2.682a32.239,32.239,0,0,0,2.316-8.709,16.466,16.466,0,0,0,.06-3.074c-.078-1.887-.145-3.517.975-3.848a4.292,4.292,0,0,1,1.184-.191,3.2,3.2,0,0,1,2.522,1.468A3.117,3.117,0,0,0,33.5,18.7a13.03,13.03,0,0,0,2.426.506h.008l.022,0h.016c.41.055.92.124,1.529.251,2.631.515,3.579,1.959,3.271,4.983q-.028.281-.055.573c-.374,3.824-.886,9.061,1.031,9.723a1,1,0,0,0,.347.056c1.5,0,3.794-2.705,4.219-4.217a11.748,11.748,0,0,0,.6-3.423,32.337,32.337,0,0,1,.582-6.436c.177-.711.382-1.257,1.258-1.293.118,0,.251-.011.428-.024H49.2l.042,0c.251-.018.543-.038.839-.038a2,2,0,0,1,1.227.278c.7.527.669,1.06.592,2.348-.006.1-.012.2-.018.311-.277,6.82.2,11.07,1.371,12.292a1.078,1.078,0,0,0,.787.369c.894,0,2.017-1.208,3.165-3.4a31.682,31.682,0,0,0,2.569-7.072A80.157,80.157,0,0,1,59.81,11.4c.475-4.874,1.511-8.236,3.08-9.993A3.864,3.864,0,0,1,65.669,0c.052,0,.11,0,.224,0a4.256,4.256,0,0,1,3.335,1.47A5.111,5.111,0,0,1,70.41,4.335a31.556,31.556,0,0,1-1.246,9.911,48.822,48.822,0,0,1-3.989,10.371c-.6,3.989.023,7.4,1.714,9.37a4.064,4.064,0,0,0,3.049,1.543,3.992,3.992,0,0,0,2.976-1.486,9.091,9.091,0,0,0,1.9-4.543,8.279,8.279,0,0,1-3.855-5.392,3.605,3.605,0,0,1,.745-3.262,1.7,1.7,0,0,1,1.269-.429,5.769,5.769,0,0,1,3.441,1.387,5.2,5.2,0,0,1,1.972,3.914,4.6,4.6,0,0,0,2.89-1.848c.05-.073.074-.108.088-.108s.011.008.014.027a74.012,74.012,0,0,1,.082-12.7c.494-4.649,1.53-7.887,3.081-9.624A4.03,4.03,0,0,1,87.438,0c.05,0,.111,0,.225,0A4.256,4.256,0,0,1,91,1.47a5.111,5.111,0,0,1,1.181,2.865,31.557,31.557,0,0,1-1.246,9.911,48.823,48.823,0,0,1-3.989,10.371c-.6,3.99.023,7.406,1.714,9.37a4.064,4.064,0,0,0,3.049,1.543,3.992,3.992,0,0,0,2.975-1.486,9.091,9.091,0,0,0,1.9-4.543c-1.126-.218-3.09-2.227-3.934-4.488a4.245,4.245,0,0,1,.306-4.166,1.2,1.2,0,0,1,1-.411,6.533,6.533,0,0,1,3.629,1.7,6.824,6.824,0,0,1,2.507,3.727,4.564,4.564,0,0,0,2.774-1.809c.047-.071.077-.115.093-.115s.011.008.014.027a74.012,74.012,0,0,1,.082-12.7c.494-4.649,1.53-7.887,3.081-9.624a4.03,4.03,0,0,1,2.9-1.457c.05,0,.109,0,.224,0a4.257,4.257,0,0,1,3.336,1.47,5.111,5.111,0,0,1,1.181,2.865,31.557,31.557,0,0,1-1.246,9.911,48.627,48.627,0,0,1-3.989,10.371c-.6,3.99.023,7.406,1.714,9.37A4.064,4.064,0,0,0,113.3,35.7a3.992,3.992,0,0,0,2.975-1.486,9.091,9.091,0,0,0,1.9-4.543c-1.6-.267-3.541-2.382-4.226-4.616a4.016,4.016,0,0,1,.862-4.293,1.037,1.037,0,0,1,.742-.25c1.7,0,5.2,2.5,6.138,5.469a6.805,6.805,0,0,0,2.436-.553l.04-.016.01,0,.022-.008c.057-.023.094-.037.119-.044a47.851,47.851,0,0,1-.868-13.381c.372-4.4,1.461-7.932,3.067-9.942A4.848,4.848,0,0,1,130.286,0h.156a4.962,4.962,0,0,1,3.991,1.6,7.558,7.558,0,0,1,1.558,3.92,26.855,26.855,0,0,1-.2,7.323,29.383,29.383,0,0,1-3.507,10.663,19.371,19.371,0,0,1-3.068,4.076.831.831,0,0,0-.106.112,19.188,19.188,0,0,0,1.6,4.259c1.253,2.332,2.761,3.515,4.482,3.515a6.04,6.04,0,0,0,3.68-1.594l0-.008,0-.007,0-.007,0-.007-.007-.015a11.845,11.845,0,0,1-.877-2.543,13.112,13.112,0,0,1,1.663-9.762,8.12,8.12,0,0,1,5.405-3.474,7.865,7.865,0,0,1,1.348-.119,6.043,6.043,0,0,1,3.83,1.254,5.583,5.583,0,0,1,1.994,3.708,10.221,10.221,0,0,1-2.31,7.753,13.549,13.549,0,0,1-4.527,3.853.445.445,0,0,0-.066-.035,7.45,7.45,0,0,0,1.263.546,10.19,10.19,0,0,0,3.23.546,8.745,8.745,0,0,0,4.948-1.514,14.672,14.672,0,0,0,4.87-6.231c.173-.37.369-.543.616-.543a1.134,1.134,0,0,1,.621.262c.409.288,2.416,2.224,1.465,3.866-3.955,6.715-9.084,8.125-12.691,8.126a13.72,13.72,0,0,1-8.095-2.558c-.126.086-.252.175-.359.251l-.089.062-.054.039-.012.008-.006.005a10.364,10.364,0,0,1-5.97,2.4c-.17,0-.342-.006-.511-.018a7.581,7.581,0,0,1-4.31-1.795,13.037,13.037,0,0,1-2.868-3.477,21.424,21.424,0,0,1-2.122-5.03,11.393,11.393,0,0,1-3.139.708h-.031a11.423,11.423,0,0,1-2.063,5.9A8.323,8.323,0,0,1,113,39.771ZM9.016,23.274A4.687,4.687,0,0,0,5.178,25.2,7.235,7.235,0,0,0,3.8,29.59a7.123,7.123,0,0,0,1.462,4.389,4.964,4.964,0,0,0,3.925,1.929,5.785,5.785,0,0,0,5.671-4.68c-.087-.2-.174-.4-.261-.6l-.009-.022-.007-.015c-.369-.843-.718-1.639-1.029-2.569-.29-.863-.872-2.734-1.088-3.585A4.368,4.368,0,0,0,9.016,23.274ZM146.045,22a1.58,1.58,0,0,0-.255.019,4.182,4.182,0,0,0-2.751,1.8,7.494,7.494,0,0,0-.967,5.858,7.156,7.156,0,0,0,.675,1.865c4.113-2.764,5.839-5.425,5.275-8.135A2.045,2.045,0,0,0,146.045,22ZM17.968,4.58a1.55,1.55,0,0,0-1.127.525c-1.517,1.569-1.923,6.2-1.809,9.687a31.335,31.335,0,0,0,1.9,9.454.483.483,0,0,0,.132.137.408.408,0,0,1,.128.153A30.386,30.386,0,0,0,19.674,12.62c.054-3.89-.574-6.683-1.181-7.633C18.319,4.717,18.142,4.58,17.968,4.58Zm112.741-.56c-.027,0-.054,0-.094.005a2.8,2.8,0,0,0-1.776,1.393c-1.376,2.2-1.694,6.4-1.717,9.546a41.494,41.494,0,0,0,.636,8.224,25.591,25.591,0,0,0,4.227-10.482c.583-3.34.485-6.43-.25-7.872C131.46,4.293,131.115,4.019,130.709,4.019Zm-21.464.9a1.174,1.174,0,0,0-.887.461c-1.067,1.218-1.487,4.557-1.65,7.144a46.211,46.211,0,0,0,.066,7.286c1.351-2.165,3.74-11.976,2.955-14.393a.73.73,0,0,0-.363-.491A1.068,1.068,0,0,0,109.244,4.919Zm-21.6-.173a1.174,1.174,0,0,0-.887.461c-1.067,1.218-1.487,4.557-1.65,7.144a46.236,46.236,0,0,0,.066,7.286c1.351-2.165,3.74-11.976,2.955-14.393a.73.73,0,0,0-.363-.491A1.01,1.01,0,0,0,87.648,4.745Zm-21.77,0a1.177,1.177,0,0,0-.887.461C63.923,6.425,63.5,9.764,63.342,12.35a46.268,46.268,0,0,0,.066,7.286c1.351-2.164,3.739-11.974,2.954-14.393A.724.724,0,0,0,66,4.753.962.962,0,0,0,65.878,4.745ZM49.672,16a3.375,3.375,0,1,1,3.369-3.375A3.376,3.376,0,0,1,49.672,16Z" fill="#ddd"/>
</svg>
