<svg xmlns="http://www.w3.org/2000/svg" width="61" height="61" viewBox="0 0 61 61">
  <path id="GE_Logo" data-name="GE Logo" d="M30.522,61h0a30.724,30.724,0,0,1-6.761-.752,30.022,30.022,0,0,1-8.237-3.166A30.363,30.363,0,0,1,.372,35.15,29.646,29.646,0,0,1,.227,26.8,30.545,30.545,0,0,1,28.29.082C29.022.028,29.767,0,30.5,0A30.5,30.5,0,0,1,40.42,59.349,30.123,30.123,0,0,1,30.522,61Zm.031-59.539c-.758,0-1.519.031-2.263.091a28.349,28.349,0,0,0-10.329,2.76A29.129,29.129,0,0,0,5.431,15.892,28.6,28.6,0,0,0,1.606,27.771,29.056,29.056,0,0,0,3.121,40.16a28.686,28.686,0,0,0,3.76,7.215A29.058,29.058,0,0,0,20.747,57.848a28.18,28.18,0,0,0,9.292,1.67c.2,0,.4.006.6.006a28.58,28.58,0,0,0,12.8-3.036,29.116,29.116,0,0,0,12.5-12,28.783,28.783,0,0,0,3.43-16.879,28.3,28.3,0,0,0-4.7-13.151A29,29,0,0,0,44.359,5.012,28.626,28.626,0,0,0,30.553,1.461ZM30.4,57.706a29.071,29.071,0,0,1-6.948-.837c-.138-.043-.288-.081-.409-.112a2.742,2.742,0,0,1-1.311-.6,5.743,5.743,0,0,1,1.5.268l.011,0a9.192,9.192,0,0,0,.983.229,22.275,22.275,0,0,0,4.082.436,11.619,11.619,0,0,0,2.888-.337,4.808,4.808,0,0,0,2.74-1.669,2.261,2.261,0,0,0-.15-2.84,2.115,2.115,0,0,0-1.529-.627,2.252,2.252,0,0,0-1.011.238,9.248,9.248,0,0,0-1.284.909,8.342,8.342,0,0,1-1.437.991,8.108,8.108,0,0,1-3.615.748,17,17,0,0,1-2.874-.279,22.869,22.869,0,0,1-9.94-4.249,22.67,22.67,0,0,1-7.74-11.8,28.419,28.419,0,0,1-.12-14.818,2.749,2.749,0,0,0,.138-.516l0-.015c.082-.41.168-.834.559-1a20.9,20.9,0,0,0-.86,8.529A5.279,5.279,0,0,0,5.791,33.8a2.515,2.515,0,0,0,1.584.589,1.865,1.865,0,0,0,1.1-.339,2.083,2.083,0,0,0,.739-2.579,6.732,6.732,0,0,0-.927-1.451l-.01-.013-.013-.017a7.931,7.931,0,0,1-.809-1.2c-1.062-1.954-.929-4.307-.66-6.35a23.352,23.352,0,0,1,3.74-9.549A20.444,20.444,0,0,1,16.08,7.5a24.054,24.054,0,0,1,7.071-3.187A27.4,27.4,0,0,1,30.543,3.3,26.525,26.525,0,0,1,38.72,4.572a1.494,1.494,0,0,1,.486.309l.035.028.04.033A6.386,6.386,0,0,1,37.9,4.635l-.015,0a8.249,8.249,0,0,0-1-.258,20.936,20.936,0,0,0-4.137-.451,14.262,14.262,0,0,0-2.113.151,5.4,5.4,0,0,0-3.5,1.82,2.267,2.267,0,0,0,.041,2.839,2.1,2.1,0,0,0,1.559.634,2.565,2.565,0,0,0,1.541-.514c.138-.1.277-.206.411-.309l.018-.013.095-.071A7.548,7.548,0,0,1,33.64,6.882a10.658,10.658,0,0,1,2.559-.3,19.118,19.118,0,0,1,5.461.939,20.389,20.389,0,0,1,8.379,4.52,23.512,23.512,0,0,1,7.219,13.639,27.5,27.5,0,0,1-.809,13.209.424.424,0,0,1-.38.35,19.829,19.829,0,0,0,.79-8.949c-.525-2.434-1.671-3.28-2.54-3.56a1.913,1.913,0,0,0-.639-.108,2.011,2.011,0,0,0-2.03,1.758,3.5,3.5,0,0,0,1.078,2.676c.175.226.344.447.491.664,1.457,2.087,1.307,4.741.929,7.3a23.681,23.681,0,0,1-3.77,9.309,20.206,20.206,0,0,1-5.792,5.478,24.3,24.3,0,0,1-7.368,3.1A29.563,29.563,0,0,1,30.4,57.706ZM25.84,28.494V28.5c0,.026-.005.05-.007.075v.007c0,.034-.007.068-.01.1a5.141,5.141,0,0,1-.231,1.273,5.741,5.741,0,0,1-1.037.614l-.011.006L24.5,30.6l-.02.01c-.137.068-.291.146-.435.227l-.054.028A33.811,33.811,0,0,0,16.741,35.5a9.277,9.277,0,0,0-3.03,5.58,4.921,4.921,0,0,0,2.06,4.5,5.056,5.056,0,0,0,2.82.8,7.13,7.13,0,0,0,2.48-.465A9.618,9.618,0,0,0,25.86,41.3c1.583-2.843,1.831-6.22,2.05-9.2.011-.067.017-.137.023-.217l0-.021v-.018c.024-.328.05-.668.393-.793a78.7,78.7,0,0,0,7.39-4.7c.257.312.507.634.761.964l.049.063.01.013A12.8,12.8,0,0,0,33.18,30a10.386,10.386,0,0,0-2.585,6.982,9.792,9.792,0,0,0,2.7,6.907,8.267,8.267,0,0,0,6.022,2.484,8.677,8.677,0,0,0,1.278-.095,8.193,8.193,0,0,0,5.82-3.96,7.6,7.6,0,0,0,1.024-4.507A7.233,7.233,0,0,0,45.66,33.56a5.381,5.381,0,0,0-7.74.08,4.409,4.409,0,0,0-1.156,3.005A4.144,4.144,0,0,0,37.94,39.62a2.494,2.494,0,0,0,1.683.742A1.519,1.519,0,0,0,40.5,40.1a.931.931,0,0,0,.373-.692,1.207,1.207,0,0,0-.323-.918l-.016-.019a2.969,2.969,0,0,1-1-2.31,2.135,2.135,0,0,1,2.153-1.71,2.061,2.061,0,0,1,.456.05,2.818,2.818,0,0,1,2.08,1.77,5.729,5.729,0,0,1-1.141,6.03,4.977,4.977,0,0,1-3.585,1.458,5.03,5.03,0,0,1-2.714-.769,6.958,6.958,0,0,1-2.99-4.939,9.192,9.192,0,0,1,1.59-6.76,6.822,6.822,0,0,1,3.729-2.551c.187.014.378.031.563.047l.106.01h.014c.436.04.978.09,1.484.09a5.11,5.11,0,0,0,1.623-.228,1.472,1.472,0,0,0,.851-.763.862.862,0,0,0,0-.717,2.289,2.289,0,0,0-1.76-.98,3.607,3.607,0,0,0-.744-.072,8.946,8.946,0,0,0-1.7.221l-.019,0-.018,0c-.143.029-.283.057-.422.083A2.419,2.419,0,0,1,37.829,24.9a19.375,19.375,0,0,0,4.94-4.85,5.349,5.349,0,0,0,.86-4.02,2.644,2.644,0,0,0-1.99-1.88,3.5,3.5,0,0,0-.848-.1,4.94,4.94,0,0,0-3.482,1.663,10.062,10.062,0,0,0-2.56,7.1,3.982,3.982,0,0,0,.042.62l0,.01v.013a2.46,2.46,0,0,1-.015.957,32.527,32.527,0,0,1-3.153,2.161l-.018.011c-.367.23-.71.447-1.02.647-.206.121-.406.244-.627.38l-.056.035-.037.022a13.984,13.984,0,0,1-1.729.963,9.157,9.157,0,0,1,.29-2.44c.207-.286.438-.561.661-.828l.027-.032.013-.015.01-.011a9.485,9.485,0,0,0,1.189-1.643,2.333,2.333,0,0,0,.319-2.19.956.956,0,0,0-.844-.41,1.722,1.722,0,0,0-.766.189,4.957,4.957,0,0,0-2.07,2.72,5.4,5.4,0,0,0-.226.661l0,.012a2.4,2.4,0,0,1-.731,1.327,4.965,4.965,0,0,1-3.07,1.491h-.09A1.515,1.515,0,0,1,21.54,26.19a12.023,12.023,0,0,0,4.84-3.72A10.236,10.236,0,0,0,28.72,17.1a2.747,2.747,0,0,0-1.189-2.661,3.339,3.339,0,0,0-1.611-.39,4.542,4.542,0,0,0-2.079.531,9.03,9.03,0,0,0-3.619,4.13,14.208,14.208,0,0,0-1.42,5.44,2.009,2.009,0,0,1-1.66-1.53,5.382,5.382,0,0,1,.092-2.821l0-.013.012-.055c.043-.2.087-.409.124-.611a.87.87,0,0,0-.194-.687c-.041-.064-.075-.123-.106-.182-.032,0-.067,0-.111,0a1.769,1.769,0,0,0-1.6.932,5.24,5.24,0,0,0,.44,5.71,4.452,4.452,0,0,0,3.11,1.539,4.459,4.459,0,0,0,2.41,2.89,3.421,3.421,0,0,0,1.292.247A6.475,6.475,0,0,0,25.838,28.5Zm-7.329,15.28a1.984,1.984,0,0,1-1.39-.494,2.7,2.7,0,0,1-.49-2.74,9.163,9.163,0,0,1,2.99-4.18A25.132,25.132,0,0,1,25.29,32.73a23.644,23.644,0,0,1-1.6,6.59c-.949,2.208-2.133,3.559-3.62,4.13A4.5,4.5,0,0,1,18.511,43.774Zm2.86-19.968v0a10.888,10.888,0,0,1,1.189-4.233,7.942,7.942,0,0,1,2.38-3.15.941.941,0,0,1,.567-.184.866.866,0,0,1,.833.534,3.012,3.012,0,0,1-.37,1.96,14.119,14.119,0,0,1-3.429,4.33,4.36,4.36,0,0,1-1.169.744ZM37.36,22.517v0A8.373,8.373,0,0,1,39.35,17a1.918,1.918,0,0,1,1.254-.707.866.866,0,0,1,.426.107c.652.38.347,1.215.06,1.81a14.864,14.864,0,0,1-3.728,4.3Z" fill="#ddd"/>
</svg>
