<svg xmlns="http://www.w3.org/2000/svg" width="107.395" height="38.703" viewBox="0 0 107.395 38.703">
  <path id="Nike_Logo" data-name="Nike Logo" d="M13.759,1.714C6.773,9.938.068,20.127,0,27.741a9.038,9.038,0,0,0,3.077,7.266,14.965,14.965,0,0,0,10.091,3.7c5.051.01,10.072-2.032,14-3.609C33.787,32.443,106.943.64,106.943.64c.706-.358.571-.8-.31-.581C106.275.147,27,21.665,27,21.665a17.722,17.722,0,0,1-4.615.658c-6.1.039-11.514-3.348-11.475-10.488a23.446,23.446,0,0,1,2.854-10.12" fill="#ddd"/>
</svg>
