<svg xmlns="http://www.w3.org/2000/svg" width="182.134" height="37.736" viewBox="0 0 182.134 37.736">
  <path id="Tumblr_Logo" data-name="Tumblr Logo" d="M33.878,37.736c-3.807,0-6.647-1.264-8.441-3.757a12.027,12.027,0,0,1-2-6.864V10.44h9.007V26.652c0,2.019.42,4.083,3.534,4.083.046,0,.094,0,.141,0a5.08,5.08,0,0,0,4.22-1.855,4.388,4.388,0,0,0,.878-2.461l.012-9.079c-.01-.738-.343-1.053-1.112-1.053H37.759V10.44h12.23V30.345a1.08,1.08,0,0,0,1.145,1.174c.621.042,1.41.1,1.42.1V37.34H42.518l-.073-3.352a11.436,11.436,0,0,1-8.092,3.743C34.18,37.734,34.025,37.736,33.878,37.736Zm-19.167-.007a12.147,12.147,0,0,1-4.962-.957,8.768,8.768,0,0,1-3.2-2.408,10.119,10.119,0,0,1-2.234-6.4V16.663H0V11.308A10.377,10.377,0,0,0,5.676,6.7a13.283,13.283,0,0,0,1.67-5.243.291.291,0,0,1,.268-.274h5.469v9.251H20.02v6.225H13.055V27.4a4.191,4.191,0,0,0,.657,2.374,3.168,3.168,0,0,0,2.778,1.232l.157,0a8.994,8.994,0,0,0,3.014-.63l1.8,5.21A5.37,5.37,0,0,1,19,37a13.578,13.578,0,0,1-4.009.723C14.9,37.728,14.8,37.729,14.711,37.729Zm108.813-.046a11.635,11.635,0,0,1-7.273-2.582l-.04-.032a1.221,1.221,0,0,0-.1-.077l-1.029,2.315-7.206.008V9.093c-.01-.728-.355-1.053-1.117-1.053l-2.522,0,.13-5.718A53.431,53.431,0,0,0,113.5,0h3.151V12.486a10.554,10.554,0,0,1,6.279-2.432c.252-.01.5-.015.746-.015,4.392,0,7.585,1.761,9.489,5.233a17.99,17.99,0,0,1,1.881,8.3c0,4.027-.867,7.3-2.576,9.715a10.313,10.313,0,0,1-7.562,4.314A11.77,11.77,0,0,1,123.524,37.683ZM121.268,16.7c-.106,0-.16,0-.206,0a5.219,5.219,0,0,0-3.207,1.142,3.247,3.247,0,0,0-1.2,2.473V28.4a4.97,4.97,0,0,0,4.506,2.689c.177,0,.321-.005.441-.016,1.483-.109,4.569-.335,4.569-7.391C126.171,19.247,124.384,16.7,121.268,16.7Zm55.6,20.947a5.161,5.161,0,1,1,5.27-5.159A5.222,5.222,0,0,1,176.864,37.649ZM70.119,37.34h0l-14.717,0V31.618l.019,0,.038,0,.088-.006.3-.02c.414-.03,1.02-.072,1.39-.1a1.105,1.105,0,0,0,1.148-1.2V17.373c-.01-.728-.353-1.052-1.112-1.052l-2.5-.037V10.439H65.653l.261,3.5a9.2,9.2,0,0,1,3.462-2.758,11.534,11.534,0,0,1,4.372-1.1c.255-.012.512-.018.762-.018,3.669,0,6.466,1.354,8.315,4.024l.167.2.274-.345a9.2,9.2,0,0,1,3.462-2.758,11.541,11.541,0,0,1,4.371-1.1c.27-.012.521-.018.766-.018a10.174,10.174,0,0,1,8.364,3.7c1.96,2.5,1.96,5.615,1.96,8.367v8.16a1.1,1.1,0,0,0,1.14,1.2c.678.046,1.838.128,1.838.128v5.718H90.446V31.619l.077-.006.067,0,.226-.015.162-.011.273-.019.053,0,.979-.069a1.1,1.1,0,0,0,1.147-1.2l0-1.475V21.148c0-2.746-1.266-4.081-3.87-4.081a4.787,4.787,0,0,0-3.9,1.681,4.657,4.657,0,0,0-1.018,2.776c0,1.118-.008,5.842-.011,7.859v.9h.022a1.1,1.1,0,0,0,1.141,1.2c.679.046,1.839.128,1.839.128v5.718h-14.7V31.619l.036,0h.015l.138-.01.355-.026,1.295-.09a1.1,1.1,0,0,0,1.147-1.2s0-6.947,0-9.142c0-1.9-.424-4.081-3.729-4.081a4.921,4.921,0,0,0-3.961,1.681,4.615,4.615,0,0,0-1.084,2.776c0,1.346-.009,7.22-.012,8.693v.071a1.107,1.107,0,0,0,1.147,1.2c.679.046,1.839.128,1.839.128v5.721Zm98.468-.028h-14.7V31.595l.028,0h.012l.033,0,.158-.011.2-.014c.416-.03,1.031-.073,1.4-.1a1.116,1.116,0,0,0,1.149-1.2V17.3c-.01-.747-.321-1.052-1.073-1.052l-2.189,0V10.411h10.44l.823,2.47a10.736,10.736,0,0,1,7.246-2.888,6.9,6.9,0,0,1,4.248,1.28,5.113,5.113,0,0,1,1.952,3.971,4.861,4.861,0,0,1-5.109,4.7,4.965,4.965,0,0,1-2.507-.754,3.826,3.826,0,0,1-1.8-2.815c-2.148.519-3.285,2.282-3.285,5.1l0,8.788a1.106,1.106,0,0,0,1.151,1.2c.588.038,1.806.126,1.823.128v5.717Zm-17.467,0H136.125V31.6l1.968-.129a1.1,1.1,0,0,0,1.147-1.2V9.089c-.01-.737-.341-1.052-1.107-1.052h-2.406V2.319A48.649,48.649,0,0,0,144.827,0h3.184L148,30.266a1.1,1.1,0,0,0,1.148,1.2l1.969.129v5.716Z" fill="#ddd"/>
</svg>
