<svg id="Vans_Logo" data-name="Vans Logo" xmlns="http://www.w3.org/2000/svg" width="118.998" height="50.877" viewBox="0 0 118.998 50.877">
  <path id="Fill_1" data-name="Fill 1" d="M33.3,50.877c-3.941-.072-6.966-1.132-9.246-3.243-1.113-1.005-.929-2.3-.752-3.56a4.283,4.283,0,0,0-.3-3.051c-1.1-1.016-2.61-1.1-4.071-1.18a13.621,13.621,0,0,1-1.954-.2l-6.228-.206c-1.052-.217-1.512-1.1-1.958-1.944l0-.007-.017-.034-.013-.025-.008-.015-.013-.025-.008-.015-.005-.009-.005-.009-.006-.012a7.426,7.426,0,0,0-.442-.751L.151,21.72A5.6,5.6,0,0,1,.7,17.973l.019-.051.005-.012,0-.011.011-.029.012-.032c.1-.272.206-.538.294-.8l.919-.8c8.353-.519,15.746-3.987,22.9-7.339l.044-.021.012-.006.012-.006.042-.019L25,8.84l.007,0,.007,0c3.278-1.54,6.667-3.131,10.235-4.441A78.618,78.618,0,0,1,47.48,1.167,73.188,73.188,0,0,1,60.4,0,65.069,65.069,0,0,1,73.513,1.3,62.27,62.27,0,0,1,87.7,5.635l.009,0c8.214,4.088,17.524,8.721,27.319,11.88a6.957,6.957,0,0,1,3.905,3.683c.583,4.59-3.141,7.836-6.426,10.7l-.005.005-.1.086c-.255.222-.492.429-.728.638a8.963,8.963,0,0,1-1.322.911l-.013.008-.008.005-.013.008-.019.011-.014.009-.005,0a5.271,5.271,0,0,0-1.992,1.69,12.387,12.387,0,0,1-.322,4.521,7.633,7.633,0,0,1-2.269,3.74,17.779,17.779,0,0,1-11.593,4.522,18,18,0,0,1-3.029-.279c-1.733-.552-2.519-2.25-3.176-3.941a1.61,1.61,0,0,0-1.512-.628,5.715,5.715,0,0,0-.736.048,100.968,100.968,0,0,1-21.977,2.262,124.964,124.964,0,0,1-13.641-.755L43.82,43.752c-1.356.153-1.582,1.261-1.8,2.333V46.1l0,.007a4.5,4.5,0,0,1-.522,1.576C39.762,50.223,36.5,50.653,33.3,50.877ZM30.512,45.3a9.664,9.664,0,0,0-2.531.327,1.409,1.409,0,0,0-.842,1.518c1.492,1.761,3.86,2.131,5.585,2.131a13.544,13.544,0,0,0,2.966-.343,1.668,1.668,0,0,0,.924-1.34l-.35-.547A10.153,10.153,0,0,0,30.512,45.3Zm-.586-1.384c3.848,0,7.09,1.322,9.127,3.722l.538.1a.981.981,0,0,0,.554-.621c.013-.081.03-.168.047-.259.117-.627.262-1.408-.282-1.732a15.764,15.764,0,0,0-10.505-3.495,24.315,24.315,0,0,0-3.433.252,2.071,2.071,0,0,0-1.208,1.789c-.007.362-.016.811.434.911A17.368,17.368,0,0,1,29.926,43.916Zm71.421-2.533A6.9,6.9,0,0,0,96.856,43.1c-.055.054-.113.109-.17.162l-.062.059c-.689.65-1.4,1.322-1.26,2.372a1.252,1.252,0,0,0,.9.629l.009,0c.117.035.231.07.34.115a8.5,8.5,0,0,0,6.557-3.133,1.364,1.364,0,0,0-.064-1.45l-.534-.365A6.705,6.705,0,0,0,101.347,41.384Zm1.293-3.321h0a14.976,14.976,0,0,0-6.323,1.724,20.684,20.684,0,0,0-5.346,4.11c-.1.23-.375,1.013.154,1.446a1.676,1.676,0,0,0,1.145.676c.624,0,1.066-.688,1.535-1.417l0-.005c.4-.614.8-1.248,1.332-1.435a10.261,10.261,0,0,1,6.789-2.907,7.121,7.121,0,0,1,2.557.465l.05.013a2.532,2.532,0,0,0,.634.11.633.633,0,0,0,.583-.281c.328-.316.235-.908.153-1.43l-.011-.071,0-.01c-.006-.04-.012-.078-.018-.116-.468-.834-1.436-.839-2.371-.844-.29,0-.589,0-.866-.029ZM12.347,36.217h0c-.415.2-.521.6-.633,1.029-.035.134-.071.272-.117.4-.065.245.084.325.242.411a.8.8,0,0,1,.2.136l12.533,1.136c5.029.459,9.943,1.4,14.694,2.317a122.536,122.536,0,0,0,18.007,2.532c2.409.187,4.839.282,7.222.282A86.157,86.157,0,0,0,85.07,42.016a78.434,78.434,0,0,0,18.807-7.27c.45-.249.913-.5,1.362-.747,4.374-2.39,9.331-5.1,12.192-9.3.077-.373.221-1.069-.246-1.364-8.866,6.786-16.641,11.15-24.467,13.732a75.546,75.546,0,0,1-14.12,3.6,96.394,96.394,0,0,1-15.063,1.149,110.8,110.8,0,0,1-15.144-1.057l-21.8-3.113q-.97-.129-1.937-.262a104.33,104.33,0,0,0-12.308-1.174ZM69.274,20.376c-.5.03-.961.05-1.512.074l-.082,0-.093,0-.121.005-.109,0a32.962,32.962,0,0,0-4.776.419l.05,1.988,1.225,17.1.166.632.147,0,.245,0,.172,0H64.6c.181,0,.375-.006.58-.007h.035a34.405,34.405,0,0,0,5.778-.4,5.461,5.461,0,0,0-.318-2.445L67.6,37.687l-.446-.367-.274-4.7.186-.267a3.657,3.657,0,0,1,1.036-.128,2.739,2.739,0,0,0,1.409-.282,11.274,11.274,0,0,0-.212-2.982,2.905,2.905,0,0,0-.671-.064c-.077,0-.158,0-.256.005l-.08,0h-.034l-.059,0-.042,0-.042,0-.062,0h-.03l-.082,0c-.1,0-.189.005-.267.005a2.576,2.576,0,0,1-1.081-.187l-.451-4.888.278-.357L69.678,23v-.079a12.157,12.157,0,0,0-.133-2.452l-.271-.1ZM60.955,40.352c.144,0,.312.008.545.025a.318.318,0,0,0,.263-.143.215.215,0,0,0,.012-.215L60.581,21.388l-.168-.45c-.089,0-.188,0-.351,0a7.962,7.962,0,0,0-2.818.392l.4,7.866-.187.269h-.045a5.643,5.643,0,0,0-.733.068l-.035,0-.012,0-.013,0-.02,0a6.086,6.086,0,0,1-.752.066,1.3,1.3,0,0,1-.915-.287c-.117-1.023-.183-2.062-.237-2.9l0-.029,0-.027,0-.036,0-.041,0-.044v-.009l0-.067v-.186a38.114,38.114,0,0,0-.486-4.624,10.872,10.872,0,0,1-1.432.106h-.086a9.58,9.58,0,0,0-1.469.111l-.1.539.87,16.549.251.907,3.066.327.271-.085-.422-6.42.184-.269h.033a5.061,5.061,0,0,0,.866-.1l.022,0a5.9,5.9,0,0,1,.917-.1,1.9,1.9,0,0,1,.784.156l.5,6.872A2.4,2.4,0,0,0,60,40.369c.094,0,.2,0,.326-.005l.1,0h.1l.1,0C60.756,40.354,60.859,40.352,60.955,40.352Zm14.83-20.4h0l-3.434.208-.275.177,3.9,18.5.348.817c.437-.083.926-.128,1.284-.161l.016,0h.141a7.686,7.686,0,0,0,2.457-.475l.66-6.312c0-.038,0-.077,0-.116v-.063c-.007-.221-.015-.45.092-.561a.247.247,0,0,1,.186-.069h.006c.111.482.2.922.31,1.434l.005.026,0,.018,0,.019.013.066.026.12.031.149,0,.008,0,.007v.006l0,.007v.014l0,.012.005.024a34.578,34.578,0,0,0,1.19,4.624,18.869,18.869,0,0,0,3.735-.987l.075-.025c.566-7.175.863-12.8.964-18.231-.267-.006-.494-.009-.782-.009a8.571,8.571,0,0,0-2.2.225.671.671,0,0,1-.057.2l-.006.014,0,.009,0,.008c-.069.172-.146.367-.034.488l-.49,7.128c0,.061,0,.128,0,.186.007.315.015.641-.287.71-.57-2.441-1.07-5-1.49-7.616l-.43-1a5.692,5.692,0,0,1-.882.055l-.228,0h-.384l-.1,0a3.7,3.7,0,0,0-1.577.254c-.092.94-.168,1.957-.2,2.445l-.007.094-.01.138-.008.12,0,.044,0,.049,0,.052,0,.045,0,.046,0,.052,0,.061,0,.062,0,.055a59.07,59.07,0,0,1-.732,6.65l-.013-.072v-.008l0-.02-.009-.047-.005-.028,0-.022c-.549-2.953-1.117-6.006-1.417-9.134l-.352-.458ZM43.807,24.966h0l.175.274c.238,2.353.438,4.823.584,6.626l.01.125,0,.031.01.124.009.117.01.12.01.126.007.094.012.145c.117,1.433.312,3.827.538,6.061l2.883.417.1-.273-.918-13.927.279-.354c.087,0,.173,0,.26,0a11.888,11.888,0,0,0,2.36-.225l-.044-2.438-.266-.277-1.064.049-.081,0c-2.333.108-4.978.229-7.444.421a2.9,2.9,0,0,0-.133,1.86,5.92,5.92,0,0,1,.082.939Zm49.807-6.3a2.434,2.434,0,0,0-.466.069,12.057,12.057,0,0,1-1.255.077,5.85,5.85,0,0,0-2.455.4L88.126,36.441l.084.453a7.163,7.163,0,0,0,2.146-.571l.007,0,.006,0,.006,0,.006,0,.006,0,.006,0,.006,0,.013-.005.013-.005.014-.005.036-.013c.293-.111.607-.226.912-.321a5.1,5.1,0,0,0,.144-1.186V34.73a3.026,3.026,0,0,1,.453-1.831,2.73,2.73,0,0,0,.686-.19l.009,0,.008,0a2.76,2.76,0,0,1,.887-.208.976.976,0,0,1,.4.081,5.142,5.142,0,0,1,.4,1.143l0,.012,0,.013,0,.007v.006l0,.017,0,.014,0,.011,0,.009.009.036.005.019a6.272,6.272,0,0,0,.244.8,6.676,6.676,0,0,0,2.911-1.036c-.437-2.432-.956-4.733-1.457-6.958l-.012-.057,0-.008-.015-.07-.012-.055-.009-.043-.009-.042-.006-.028-.009-.043-.017-.077-.011-.049L96,26.148l-.011-.05-.008-.035-.008-.037-.009-.043,0-.012,0-.011-.015-.068-.038-.171c-.2-.9-.582-2.584-.908-4.144a3.147,3.147,0,0,1-.328-1.256C94.561,19.509,94.453,18.669,93.614,18.669ZM36.429,22.558a38.83,38.83,0,0,0-5.411.454c.1,4.77.5,9.208.929,13.293.361.039.754.118,1.07.181l.022,0,.039.007h.006a8.828,8.828,0,0,0,1.767.239c.1,0,.172,0,.248-.008a16.372,16.372,0,0,0-.077-2.459,13.681,13.681,0,0,1,0-3.236,6.943,6.943,0,0,1,1.3-.2h.026a6.032,6.032,0,0,0,1.3-.2c-.023-.3-.028-.591-.031-.892v-.049a5.917,5.917,0,0,0-.189-1.774,2.543,2.543,0,0,0-.5-.046,5.048,5.048,0,0,0-.589.043l-.022,0-.017,0-.018,0-.017,0-.016,0-.019,0h-.009l-.02,0a4.933,4.933,0,0,1-.593.048,1.532,1.532,0,0,1-.8-.2,4.507,4.507,0,0,0-.083-.792v-.007l0-.018,0-.011a1.769,1.769,0,0,1,.131-1.43c.346-.051.646-.079,1.1-.121l.054-.005h.009l.051,0h.051l.017,0a10.906,10.906,0,0,0,1.795-.261l-.048-2.256L37.8,22.6C37.306,22.571,36.844,22.558,36.429,22.558Zm-6.677.432h0c-.557.035-1.147.067-1.657.094h-.178c-1.556.085-3.165.172-4.678.409l-.093.178L23.754,34.8l.263.37a18.516,18.516,0,0,0,3.156.42,11.557,11.557,0,0,0-.031-1.806v-.011a8.792,8.792,0,0,1,.012-2.071,2.338,2.338,0,0,1,1.33-.29h.038a2.386,2.386,0,0,0,1.35-.29l-.132-2.528-.264-.279h-.064c-.207,0-.422.019-.662.043h-.023l-.023,0a6.82,6.82,0,0,1-.693.043,1.534,1.534,0,0,1-1.06-.318c-.014-.111-.033-.223-.054-.342l0-.013,0-.026,0-.014a2.2,2.2,0,0,1,.1-1.592l2.622-.217a.863.863,0,0,0,.55-.353l-.229-2.175-.177-.362Zm-12.038.234a4.531,4.531,0,0,0-3.267,2.012,7.332,7.332,0,0,0-.863,3.913,10.4,10.4,0,0,0,.9,3.945,4.143,4.143,0,0,0,3.679,2.244c.054,0,.109,0,.164,0a4.436,4.436,0,0,0,3.561-2.105,9.648,9.648,0,0,0,.709-4.117A8.217,8.217,0,0,0,21.405,25.1a4.887,4.887,0,0,0-2.679-1.675A2.718,2.718,0,0,0,17.714,23.224Zm82.571-4.982a10.421,10.421,0,0,0-2.706.309c.084,4.324.241,9.908.722,14.734a23.831,23.831,0,0,0,5.1-2.435q0-.171.009-.323l0-.069v-.038a4.8,4.8,0,0,0-.237-2.1,3.56,3.56,0,0,0-.645.268l-.013.006-.006,0a1.963,1.963,0,0,1-.817.275.89.89,0,0,1-.246-.043,53.26,53.26,0,0,1-.586-7.053v-.029l-.005-.141c-.037-.943-.072-1.8-.124-2.725l-.17-.635C100.473,18.242,100.377,18.242,100.285,18.242Zm5.944-.43a10.082,10.082,0,0,0-2.679.307c.027.56.052,1.133.077,1.7v.01l.021.471v.018l.02.467.005.132.006.152.007.182v.135c.125,2.977.254,6.055.541,8.943a31.112,31.112,0,0,0,4-2.119l.007,0,.016-.009.015-.009.008,0,.007,0,.007,0,.008-.005.074-.044.047-.028.011-.007.087-.051.051-.03c.65-.388,1.155-.679,1.589-.916a5.148,5.148,0,0,0-.5-2.718,4.236,4.236,0,0,0-.8.381l-.012.007-.012.007-.006,0-.006,0-.006,0-.01.005-.014.008-.008.005-.014.008a2.91,2.91,0,0,1-1.442.518H107.3a29.212,29.212,0,0,1-.348-3.782v-.43c-.05-.9-.1-1.832-.227-2.754l-.17-.544C106.46,17.813,106.376,17.812,106.229,17.812ZM9.7,23.071a3.5,3.5,0,0,0-1.818.686,9.316,9.316,0,0,0,.95,2.113l0,.007.007.012.009.015,0,.006,0,.006c.219.391.467.834.673,1.3a.772.772,0,0,0,.244.041A2.521,2.521,0,0,0,11,26.706c.1-.065.18-.121.262-.174A16.975,16.975,0,0,0,9.7,23.071Zm2.463-1.311h0a2.681,2.681,0,0,0-1.731.874,11.892,11.892,0,0,0,1.228,2.69l.011.018.045.079.053.1c.133.238.227.407.319.581.13-.064.273-.119.4-.168l.023-.009.036-.014.036-.013a2.546,2.546,0,0,0,1.237-.756A8.586,8.586,0,0,1,13.1,23.6l0-.008,0-.008a6.846,6.846,0,0,0-.928-1.824Zm99.8-4.119a14.015,14.015,0,0,0-1.607,3.945l1.614.573a8.785,8.785,0,0,0,1.278-2.846l0-.008.011-.034,0-.012,0-.01.014-.046,0-.013.005-.015.007-.023.005-.016.024-.075.022-.067c.062-.191.146-.453.23-.689l-1.617-.663Zm-2.875-.773h0a14.747,14.747,0,0,0-1.325,3.355l0,.007,0,.014,0,.014-.086.284a3.162,3.162,0,0,0,1.79.759l1.516-3.856a5.371,5.371,0,0,0-1.885-.578ZM37.952,5.6a17.954,17.954,0,0,0-2.642.246c.767,2.5,1.615,5.074,2.176,6.779l.037.113.006.017.025.076.034.1.057.175.013.04.029.087.016.051.017.051c.627,1.909,1.407,4.28,2.116,6.591l.528.734,4.161-.195.455-.172,2.3-11.973.373-.533,2.621-.224,24.87-1.528c.521-.219.458-.717.4-1.2a1.957,1.957,0,0,1,0-.781.839.839,0,0,0-.186-.628.76.76,0,0,0-.574-.184,4.709,4.709,0,0,0-.678.073l-.026,0-.018,0-.011,0-.018,0h-.006a4.82,4.82,0,0,1-.711.076,1.514,1.514,0,0,1-.291-.028L44.807,5.111l-.28.357L42.529,16l-.457.261c-.5-1.432-.914-2.9-1.316-4.321l-.008-.029-.008-.03-.011-.041-.015-.054-.015-.054-.007-.024-.006-.023a59.387,59.387,0,0,0-1.938-6.05A7.566,7.566,0,0,0,37.952,5.6ZM52.343,9.323a11.08,11.08,0,0,0-3.286.383c-.94,3.684-1.712,7.1-2.359,10.438a6.337,6.337,0,0,0,.854.048,10.461,10.461,0,0,0,1.948-.18l.3-1.62a2.091,2.091,0,0,1,1.734-.577c.107,0,.227,0,.393.005l.106,0h.214l.066,0c.188,0,.3,0,.389-.011.722.013.875.587,1.022,1.141l0,.007,0,.006,0,.006,0,.006a2.418,2.418,0,0,0,.29.752,7.226,7.226,0,0,1,1.1-.079H55.2a4.327,4.327,0,0,0,1.631-.231l-2.389-7.449L53.4,9.336h-.146l-.085,0C52.8,9.326,52.554,9.323,52.343,9.323Zm7.837-.493h0l-.124.009a14.348,14.348,0,0,0-2.858.386c-.05,2.771.154,5.577.351,8.291l.036.51c.022.293.042.584.061.871l.173.548a4.278,4.278,0,0,1,.824-.058h.471a2.512,2.512,0,0,0,1.328-.258l-.192-4.25a.253.253,0,0,0,.048-.065l.01-.015.008-.013c.031-.054.062-.11.124-.11a.218.218,0,0,1,.086.026c.634.811,1.152,1.627,1.568,2.283l.01.015.006.009.02.033.011.017.018.03.014.023.027.043c.359.565.765,1.2,1.229,1.846.247-.011.42-.015.559-.015l.227,0h.112l.108,0,.107,0h.125l.131,0h.148l.184,0a5.868,5.868,0,0,0,1.733-.206c-.124-3.389-.334-6.828-.625-10.219h-.071l-.334-.01h-.093l-.062,0-.071,0-.071,0-.077,0c-.143,0-.292-.007-.437-.007a4.538,4.538,0,0,0-1.68.249c.075.673.085,1.383.094,2.07v.215a16.523,16.523,0,0,0,.1,1.966l-.366.084L60.541,9.017l-.361-.186ZM69,15.765a5.655,5.655,0,0,0-1.3,2.143,6,6,0,0,0,2.18.961l.016,0,.049.014.012,0c.252.072.393.114.519.153a7.115,7.115,0,0,0,1.632.2,5.132,5.132,0,0,0,3.9-1.629,3.2,3.2,0,0,0,.6-3.331c-.535-1.65-1.971-1.906-3.36-2.152a6.117,6.117,0,0,1-2.367-.754.56.56,0,0,1-.163-.413,1.328,1.328,0,0,1,.461-.847A1.74,1.74,0,0,1,72.219,9.8a4.631,4.631,0,0,1,1.857.537l.011.005.053.024.056.025.055.024.011.005.01.005.026.011c.187.081.333.141.484.193.453-.435,1.2-1.28,1.122-2.055a6.838,6.838,0,0,0-3.747-1.053,6.126,6.126,0,0,0-3.753,1.184,3.27,3.27,0,0,0-.78,3.148,3.386,3.386,0,0,0,2.485,2.3,4.475,4.475,0,0,0,1.47.162,2.775,2.775,0,0,1,1.906.42,1.234,1.234,0,0,1,.3.932,1.27,1.27,0,0,1-1.251.788H72.5a2.581,2.581,0,0,1-.554.05,5.525,5.525,0,0,1-1.857-.419l-.009,0A7.412,7.412,0,0,0,69,15.765h0Z" transform="translate(0 0)" fill="#ddd"/>
  <path id="Fill_2" data-name="Fill 2" d="M1.769,6.012c1.38-1.42.427-3.6.279-5.325C1.786.143.8-.325.34.295A8.774,8.774,0,0,0,.425,5.356a1.162,1.162,0,0,0,1.343.656" transform="translate(16.702 26.343)" fill="#ddd"/>
  <path id="Fill_3" data-name="Fill 3" d="M1.287,4.623A26.758,26.758,0,0,0,.376,0,21.209,21.209,0,0,0,.015,4.779a1.285,1.285,0,0,0,1.272-.155" transform="translate(92.037 24.509)" fill="#ddd"/>
  <path id="Fill_4" data-name="Fill 4" d="M.5,0A10.71,10.71,0,0,0,0,2.43a1.629,1.629,0,0,0,1.446-.061A7.617,7.617,0,0,0,.5,0" transform="translate(50.673 12.725)" fill="#ddd"/>
</svg>
