<svg xmlns="http://www.w3.org/2000/svg" width="185.548" height="37.86" viewBox="0 0 185.548 37.86">
  <path id="Wired_Logo" data-name="Wired Logo" d="M185.546,37.86H148.37V0h37.178V37.86Zm-28.876-5.912h.059c1.081-.027,5.249-.112,13.47-.112a8.431,8.431,0,0,0,6.375-2.4c2.667-2.8,2.495-7.1,2.493-7.146V15.122c0-3.545-1.356-6.1-4.031-7.6a13.177,13.177,0,0,0-6.194-1.431c-.6,0-1,.033-1.137.047H156.671ZM111.531,37.86H74.356V0h37.177V37.86ZM82.883,31.493h5V21.6l.034,0,.176,0c4.345-.09,6.674-.109,7.862-.109a2.686,2.686,0,0,1,2.586,2.16,7.586,7.586,0,0,1,.37,2.161v5.571h5.116V25.467c0-2.761-1.051-4.128-1.933-4.789a3.994,3.994,0,0,0-1.931-.782,3.533,3.533,0,0,0,1.931-1.038c.882-.869,1.933-2.657,1.933-6.239,0-2.666-.928-4.572-2.758-5.667a7.121,7.121,0,0,0-3.465-.931c-.084,0-.134,0-.143,0H82.883ZM37.176,37.86H0V0H37.178V37.86ZM8.414,31.721h6.253L19.1,13.075l4.093,18.532h6.367L34.79,6.14H29.9L26.492,25.922,21.943,6.254,16.372,6.14,11.825,25.581,8.3,6.14H3.184Zm38.825-.056v-4.32h6.254V10.289H47.24V5.969H65.2v4.32H58.382V27.344H65.2v4.32Zm71.116-.057V27.4h3.524V10.233h-3.524V6.025h21.716v8.3h-4.662V10.233h-8.868v6.025h6.822v4.207h-6.822V27.4h9.209V23.307h4.321v8.3Z" fill="#ddd"/>
</svg>
